<svg width="123" height="36" viewBox="0 0 123 36" fill="none" xmlns="http://www.w3.org/2000/svg">
<path fill-rule="evenodd" clip-rule="evenodd" d="M99.42 13.5701C105.35 13.5701 110.15 18.3701 110.15 24.3001C110.15 30.2301 105.35 35.0301 99.42 35.0301C93.49 35.0301 88.69 30.2301 88.69 24.3001C88.69 18.3701 93.49 13.5701 99.42 13.5701ZM79.05 5.0001C78.46 6.2701 77.99 7.69009 77.63 9.23009C76.81 11.8001 78.02 12.3401 80.82 11.2901C82.88 10.0601 84.94 8.8201 87 7.5901C88.05 6.8501 88.55 6.1201 88.38 5.4001C88.04 3.9801 85.3 3.2401 83.05 2.8001C80.19 2.2301 80.39 2.1101 79.05 5.0001ZM23.86 19.3101C26.61 19.3101 28.85 21.5401 28.85 24.3001C28.85 27.0501 26.62 29.2901 23.86 29.2901C21.11 29.2901 18.87 27.0601 18.87 24.3001C18.87 21.5401 21.1 19.3101 23.86 19.3101ZM99.42 19.3101C102.17 19.3101 104.41 21.5401 104.41 24.3001C104.41 27.0501 102.18 29.2901 99.42 29.2901C96.67 29.2901 94.43 27.0601 94.43 24.3001C94.43 21.5401 96.66 19.3101 99.42 19.3101ZM46.14 12.5001C48.91 9.5301 52.11 7.6001 55.81 5.7401C63.91 1.6601 68.87 2.1601 77.47 2.1601L74.58 9.6601C73.37 11.2601 72 12.3901 69.92 12.5001H46.14ZM23.86 13.5701C29.79 13.5701 34.59 18.3701 34.59 24.3001C34.59 30.2301 29.79 35.0301 23.86 35.0301C17.93 35.0301 13.13 30.2301 13.13 24.3001C13.13 18.3701 17.93 13.5701 23.86 13.5701ZM40.82 10.3001C44.34 8.1101 48.17 6.1501 52.41 4.4801C65.32 -0.609904 75.19 -1.5199 88.73 2.5801C92.81 4.1301 96.89 5.6801 100.97 6.6401C105 7.6001 122.45 8.5201 122.88 11.4501L118.57 16.6001C120.14 17.9601 121.42 19.6301 121.89 22.2401C121.76 23.8501 121.32 25.2001 120.56 26.2801C119.27 28.1301 115.49 30.0401 113.45 28.9501C112.8 28.6001 112.43 27.9001 112.44 26.7101C112.5 2.81009 83.65 5.5301 85.82 29.5301H35.48C44.8 5.4901 5.04 5.4001 12.1 28.7001C9.62 31.3801 3.77 27.3401 0 18.7501C1.03 17.7301 2.16 16.7601 3.42 15.8601C3.36 15.8101 3.48 16.0501 3.27 15.6901C3.06 15.3301 3.78 13.8201 5.26 12.9501C13.02 8.40009 31.73 8.5201 40.82 10.3001Z" fill="#C5A47E"/>
</svg>
