<svg width="112" height="123" viewBox="0 0 112 123" fill="none" xmlns="http://www.w3.org/2000/svg">
<path fill-rule="evenodd" clip-rule="evenodd" d="M44.41 29.54C44.5008 28.9826 44.3707 28.4118 44.0473 27.9489C43.724 27.4859 43.2329 27.1672 42.6784 27.0604C42.1239 26.9537 41.5496 27.0673 41.0775 27.3772C40.6054 27.6871 40.2727 28.1688 40.15 28.72L39.32 33C39.2517 33.5483 39.3941 34.1021 39.7185 34.5494C40.0429 34.9966 40.525 35.3041 41.0673 35.4095C41.6097 35.5149 42.1719 35.4105 42.6402 35.1173C43.1085 34.8241 43.448 34.364 43.59 33.83L44.41 29.56V29.54ZM57.79 32C57.796 31.4404 57.5856 30.9002 57.2027 30.4921C56.8198 30.084 56.2941 29.8395 55.7353 29.8098C55.1764 29.7802 54.6278 29.9675 54.2038 30.3328C53.7798 30.698 53.5134 31.2129 53.46 31.77L53.23 36.11C53.2009 36.6855 53.4015 37.2491 53.7878 37.6766C54.1742 38.1042 54.7145 38.3608 55.29 38.39C55.8656 38.4192 56.4291 38.2185 56.8567 37.8322C57.2843 37.4459 57.5409 36.9055 57.57 36.33L57.79 32ZM57 46.73L57.11 45C57.116 44.4404 56.9056 43.9002 56.5227 43.4921C56.1398 43.0839 55.6141 42.8395 55.0553 42.8098C54.4964 42.7802 53.9478 42.9675 53.5238 43.3328C53.0998 43.698 52.8334 44.2129 52.78 44.77L52.67 46.77H41.08V46.64L41.9 42.38C42.0101 41.8151 41.8912 41.2296 41.5696 40.7523C41.248 40.275 40.7499 39.9451 40.185 39.835C39.6201 39.7249 39.0346 39.8438 38.5573 40.1654C38.0801 40.487 37.7501 40.9851 37.64 41.55L36.81 45.82C36.7399 46.1328 36.7399 46.4572 36.81 46.77H27.94C22.04 46.77 19.03 51.88 17.22 57.51L12.61 71.78L10.38 67.6C0.410035 67 -0.729965 72.63 9.20004 77.68C-1.85997 84.84 -0.329965 97.37 0.750035 111.27C0.739737 111.443 0.739737 111.617 0.750035 111.79V119.53C0.755305 120.419 1.11131 121.269 1.74058 121.897C2.36985 122.524 3.22144 122.877 4.11003 122.88H18.38C19.2686 122.877 20.1202 122.524 20.7495 121.897C21.3788 121.269 21.7348 120.419 21.74 119.53V116.83H89.39V119.53C89.3953 120.419 89.7513 121.269 90.3806 121.897C91.0099 122.524 91.8614 122.877 92.75 122.88H107.06C107.949 122.877 108.8 122.524 109.429 121.897C110.059 121.269 110.415 120.419 110.42 119.53V113.53C111.53 95.41 112.2 88.09 105.07 80.76L103.3 78.06C114.15 73 113.24 67 103 67.6L101 71.34L97.54 57.46C96.11 51.74 92.71 46.73 86.81 46.73H75C75.1271 46.3564 75.1479 45.9548 75.06 45.57L74.27 41.51C74.128 40.976 73.7885 40.5159 73.3202 40.2227C72.8519 39.9295 72.2897 39.8251 71.7473 39.9305C71.205 40.0359 70.7229 40.3434 70.3985 40.7906C70.0741 41.2379 69.9317 41.7917 70 42.34L70.8 46.4C70.8194 46.5126 70.8495 46.6231 70.89 46.73H57ZM40.67 17H40.5H33.16C33.0037 17.0039 32.8498 17.0385 32.7069 17.102C32.564 17.1654 32.435 17.2564 32.3273 17.3696C32.2195 17.4829 32.1352 17.6164 32.079 17.7623C32.0229 17.9082 31.996 18.0637 32 18.22V22.05C32 22.3656 32.1254 22.6683 32.3486 22.8915C32.5717 23.1146 32.8744 23.24 33.19 23.24H78C78.3156 23.24 78.6183 23.1146 78.8415 22.8915C79.0647 22.6683 79.19 22.3656 79.19 22.05V18.22C79.194 18.0612 79.1662 17.9032 79.1082 17.7554C79.0502 17.6075 78.9632 17.4728 78.8523 17.3591C78.7414 17.2454 78.6088 17.155 78.4625 17.0934C78.3161 17.0317 78.1589 16.9999 78 17H72.43L72.13 16.78C70.23 7.78 64.23 3.16 57.97 2.44V0H53.14V2.68C47.05 3.93 41.65 8.86 40.67 17ZM34.84 28.92C35.0191 28.389 34.9858 27.8093 34.747 27.3023C34.5083 26.7953 34.0828 26.4003 33.5594 26.2C33.036 25.9997 32.4555 26.0097 31.9393 26.2277C31.4231 26.4458 31.0113 26.8551 30.79 27.37L29.24 31.43C29.0318 31.9684 29.046 32.5674 29.2795 33.0953C29.513 33.6233 29.9466 34.0368 30.485 34.245C31.0234 34.4532 31.6225 34.439 32.1504 34.2055C32.6783 33.972 33.0918 33.5384 33.3 33L34.84 29V28.92ZM23.57 56.32C23.8827 56.2253 24.1673 56.0555 24.3992 55.8254C24.631 55.5953 24.803 55.3119 24.9 55L25.19 54.24C25.8067 53.6246 26.5402 53.1387 27.3473 52.8107C28.1544 52.4827 29.0189 52.3193 29.89 52.33H84.25C88.75 52.33 91.48 56.13 92.43 60.51L95.9 74.91H17.39L21.71 60.51C22.1664 59.0368 22.7905 57.6208 23.57 56.29V56.32ZM24.57 43.61C24.3658 44.1484 24.3838 44.7459 24.6201 45.271C24.8564 45.7961 25.2916 46.2058 25.83 46.41C26.3684 46.6142 26.9659 46.5962 27.491 46.3599C28.0161 46.1236 28.4258 45.6884 28.63 45.15L30.18 41.09C30.3843 40.5516 30.3662 39.9541 30.1299 39.429C29.8936 38.9039 29.4584 38.4942 28.92 38.29C28.3816 38.0858 27.7842 38.1038 27.2591 38.3401C26.734 38.5764 26.3243 39.0116 26.12 39.55L24.6 43.61H24.57ZM82.15 27C82.0187 26.7439 81.8382 26.5162 81.6189 26.3299C81.3996 26.1436 81.1457 26.0023 80.8718 25.914C80.5979 25.8258 80.3092 25.7924 80.0224 25.8158C79.7356 25.8391 79.4561 25.9187 79.2 26.05C78.944 26.1813 78.7163 26.3618 78.5299 26.5811C78.3436 26.8004 78.2023 27.0543 78.1141 27.3282C78.0259 27.6022 77.9925 27.8908 78.0158 28.1776C78.0391 28.4645 78.1187 28.7439 78.25 29L80.16 32.9C80.4133 33.4172 80.8617 33.8125 81.4065 33.9991C81.9513 34.1857 82.5479 34.1483 83.065 33.895C83.5822 33.6417 83.9776 33.1934 84.1642 32.6486C84.3508 32.1038 84.3133 31.5072 84.06 30.99L82.15 27ZM85.88 44.51C86.154 44.9923 86.6016 45.3521 87.1315 45.516C87.6615 45.6799 88.234 45.6356 88.7324 45.3921C89.2309 45.1486 89.6177 44.7243 89.8142 44.2055C90.0107 43.6867 90.0021 43.1126 89.79 42.6L87.88 38.7C87.6214 38.1855 87.1691 37.7948 86.6224 37.6138C86.0757 37.4328 85.4796 37.4764 84.965 37.735C84.4505 37.9936 84.0598 38.446 83.8788 38.9926C83.6978 39.5393 83.7415 40.1355 84 40.65L85.9 44.55L85.88 44.51ZM71.79 28.72C71.68 28.1551 71.35 27.657 70.8727 27.3354C70.3954 27.0138 69.81 26.8949 69.245 27.005C68.6801 27.1151 68.1821 27.445 67.8605 27.9223C67.5388 28.3996 67.42 28.9851 67.53 29.55L68.36 33.81C68.4872 34.3554 68.8203 34.8306 69.2897 35.1361C69.7592 35.4415 70.3285 35.5537 70.8787 35.4491C71.4289 35.3445 71.9174 35.0312 72.2419 34.5747C72.5664 34.1183 72.7019 33.554 72.62 33L71.79 28.74V28.72ZM27.47 94.16L14.76 92.56C11.76 92.23 10.95 93.49 11.97 96.08L13.35 99.42C13.7391 100.201 14.3337 100.862 15.07 101.33C15.933 101.833 16.9112 102.105 17.91 102.12L29.25 102.21C31.99 102.21 33.18 101.11 32.32 98.59C32.013 97.4687 31.3944 96.4573 30.536 95.6733C29.6776 94.8892 28.6145 94.3645 27.47 94.16ZM83.64 94.16L96.36 92.56C99.36 92.23 100.16 93.49 99.14 96.08L97.77 99.42C97.3781 100.199 96.7841 100.859 96.05 101.33C95.1834 101.833 94.202 102.105 93.2 102.12L81.86 102.21C79.12 102.21 77.94 101.11 78.8 98.59C79.1031 97.4683 79.7191 96.4561 80.5762 95.6716C81.4333 94.8871 82.496 94.3628 83.64 94.16Z" fill="#C5A47E"/>
</svg>
